# xmcd
#
# Track frame offsets: 
#        150
#        15034
#        29333
#        47705
#        69944
#        82966
#        104926
#        120996
#        134314
#        149941
#        159628
#        178878
#
# Disc length: 2570 seconds
#
# Revision: 0
# Processed by: cddbd v1.5.2PL0 Copyright (c) Steve Scherf et al.
# Submitted via: ExactAudioCopy v1.0b4
#
DISCID=a30a080c
DTITLE=Trickbag - Candyville
DYEAR=2015
DGENRE=Blues
TTITLE0=Move Me, Baby
TTITLE1=Try It Again
TTITLE2=You Should Have Listened To Your Mother
TTITLE3=It's You That Wears The Ring
TTITLE4=Poison Ivy
TTITLE5=You Mysitifies Me
TTITLE6=So Good To My Baby
TTITLE7=Long Distance Lover
TTITLE8=What Kind Of Gal Is That
TTITLE9=Candyville
TTITLE10=Last Night
TTITLE11=Saturday
EXTD=
EXTT0=
EXTT1=
EXTT2=
EXTT3=
EXTT4=
EXTT5=
EXTT6=
EXTT7=
EXTT8=
EXTT9=
EXTT10=
EXTT11=
PLAYORDER=
